<svg viewBox="0 0 16 16" fill="#000000" xmlns="http://www.w3.org/2000/svg" id="Reddit-Line--Streamline-Remix" height="16" width="16">
  <desc>
    Reddit Line Streamline Icon: https://streamlinehq.com
  </desc>
  <path d="m7.368399999999999 5.210266666666667 0.5010666666666667 -2.3573266666666663c0.15313333333333332 -0.7202866666666666 0.8611333333333333 -1.1800799999999998 1.5814666666666666 -1.02698l2.130733333333333 0.4529066666666666c0.3084 -0.34189333333333327 0.7855999999999999 -0.5145733333333333 1.2683333333333333 -0.41196666666666665 0.7202666666666666 0.15309999999999999 1.1800666666666666 0.8611266666666666 1.027 1.5814133333333331 -0.15313333333333332 0.7202866666666666 -0.8611333333333333 1.1800799999999998 -1.5814 1.02698 -0.4827333333333333 -0.10260666666666665 -0.8484666666666666 -0.45446666666666663 -0.9911333333333332 -0.8922266666666667l-2.1308 -0.45291333333333333 -0.4441333333333333 2.0896999999999997c1.1897333333333333 0.09136666666666667 2.3719333333333332 0.48734 3.4425333333333334 1.13322 0.5540666666666666 -0.30798666666666663 1.2273999999999998 -0.35749333333333333 1.8325999999999998 -0.11246666666666666 0.7773999999999999 0.31472666666666665 1.2973999999999999 1.05666 1.3280666666666665 1.8947933333333333l0.0003333333333333333 0.014c0.010333333333333333 0.6690666666666667 -0.2937333333333333 1.2944 -0.8050666666666666 1.7000666666666666 -0.0013999999999999998 0.029066666666666664 -0.0032666666666666664 0.05653333333333333 -0.005599999999999999 0.08193333333333333 0 2.6651999999999996 -2.966333333333333 4.6864 -6.532266666666667 4.6864 -3.5552533333333334 0 -6.47218 -2.016 -6.470219999999999 -4.635266666666666 -0.0030933333333333334 -0.040266666666666666 -0.0055 -0.08053333333333333 -0.007213333333333333 -0.12079999999999999 -0.5346933333333332 -0.4035333333333333 -0.8562186666666666 -1.0432666666666666 -0.8457866666666667 -1.7309333333333332 0.012786666666666665 -0.843 0.5220266666666666 -1.5989533333333332 1.2984466666666665 -1.9275266666666666 0.6073666666666666 -0.25703333333333334 1.28864 -0.21461333333333332 1.8504466666666666 0.09259999999999999 1.0893933333333332 -0.65152 2.2893733333333333 -1.0209333333333332 3.5525933333333333 -1.0856066666666666Zm6.1906 3.683733333333333c0.2720666666666667 -0.1352 0.44299999999999995 -0.4135333333333333 0.4410666666666666 -0.7169333333333332 -0.014133333333333333 -0.31006666666666666 -0.2076 -0.5839333333333333 -0.49573333333333336 -0.7005999999999999 -0.29033333333333333 -0.11753333333333334 -0.6225999999999999 -0.053599999999999995 -0.8485333333333333 0.16333333333333333l-0.3897333333333333 0.374 -0.4467333333333333 -0.30366666666666664c-1.0768666666666666 -0.732 -2.301266666666667 -1.1503333333333332 -3.486333333333333 -1.1759066666666667l-0.6709999999999999 -0.00007333333333333333c-1.25006 0.018846666666666664 -2.4344266666666665 0.3993133333333333 -3.491653333333333 1.1163133333333333l-0.44204 0.29979999999999996 -0.3889933333333333 -0.366c-0.22930666666666666 -0.21573333333333333 -0.56436 -0.2758 -0.8543133333333334 -0.15306666666666666 -0.2899533333333333 0.12266666666666666 -0.4801333333333333 0.405 -0.485 0.7198 -0.00468 0.31479999999999997 0.17684 0.6028 0.46293999999999996 0.7342l0.42198 0.19386666666666666 -0.03559333333333333 0.4630666666666666c-0.00866 0.11253333333333333 -0.00866 0.22559999999999997 0.00196 0.38926666666666665 0 1.8066666666666666 2.2374666666666663 3.353066666666667 5.138846666666666 3.353066666666667 2.913933333333333 0 5.198933333333333 -1.5569333333333333 5.200866666666666 -3.4041333333333332 0.008666666666666666 -0.11259999999999999 0.008666666666666666 -0.22566666666666668 0 -0.33819999999999995l-0.034466666666666666 -0.44806666666666667 0.40246666666666664 -0.20006666666666664Zm-8.925166666666666 0.10593333333333334c0 -0.5522666666666667 0.4477133333333333 -1 1 -1s1 0.4477333333333333 1 1 -0.4477133333333333 1 -1 1c-0.26522 0 -0.5195733333333333 -0.10533333333333333 -0.7071066666666666 -0.29286666666666666 -0.18753999999999998 -0.18753333333333333 -0.29289333333333334 -0.44193333333333334 -0.29289333333333334 -0.7071333333333333Zm4.666633333333333 0c0 -0.5522666666666667 0.4477333333333333 -1 1 -1 0.5523333333333333 0 1 0.4477333333333333 1 1s-0.44766666666666666 1 -1 1c-0.2652 0 -0.5195333333333333 -0.10533333333333333 -0.7070666666666666 -0.29286666666666666s-0.2929333333333333 -0.44193333333333334 -0.2929333333333333 -0.7071333333333333Zm-1.3228 3.401933333333333c-0.9314666666666667 0 -1.8443800000000001 -0.24659999999999999 -2.5876466666666667 -0.8066666666666666 -0.09229333333333334 -0.11246666666666666 -0.08423333333333333 -0.27659999999999996 0.018639999999999997 -0.3794666666666667 0.10287333333333333 -0.10286666666666666 0.267 -0.11093333333333333 0.37945999999999996 -0.018666666666666665 0.62986 0.46199999999999997 1.4152133333333332 0.6599999999999999 2.1790133333333332 0.6599999999999999 0.7638666666666666 0 1.5537333333333332 -0.1829333333333333 2.1895333333333333 -0.639 0.07486666666666666 -0.073 0.183 -0.10053333333333332 0.28359999999999996 -0.07219999999999999 0.10066666666666665 0.028333333333333335 0.17853333333333332 0.10819999999999999 0.2043333333333333 0.20953333333333335 0.025733333333333334 0.10133333333333333 -0.010133333333333333 0.20099999999999998 -0.07933333333333333 0.2816666666666666 -0.4560666666666667 0.5316666666666666 -1.6562000000000001 0.7647999999999999 -2.5876 0.7647999999999999Z" stroke-width="0.6667"></path>
</svg>